<?xml version="1.0" encoding="UTF-8" standalone="no"?>
<svg width="90px" height="54px" viewBox="0 0 90 54" version="1.1" xmlns="http://www.w3.org/2000/svg" xmlns:xlink="http://www.w3.org/1999/xlink">
    <!-- Generator: Sketch 3.7.2 (28276) - http://www.bohemiancoding.com/sketch -->
    <title>Slice 1</title>
    <desc>Created with Sketch.</desc>
    <defs></defs>
    <g id="Page-1" stroke="none" stroke-width="1" fill="none" fill-rule="evenodd">
        <path d="M82.8,49.1 L82.8,3.3 C82.8,2.3 81.6,0.9 80.6,0.9 L9.5,0.9 C8.5,0.9 7.8,2.3 7.8,3.3 L7.8,49.1 L0,49.1 L0,51.5 L0,51.6 L0,51.7 L0,51.7 C0.2,52.6 2.9,53.1 4.2,53.1 L85.8,53.1 C87,53.1 89.8,52.6 90,51.7 L90,51.7 L90,51.6 L90,51.5 L90,49.1 L82.8,49.1 L82.8,49.1 Z M85.8,52.8 L4.2,52.8 C2.7,52.8 0.6,52.2 0.3,51.7 L89.7,51.7 C89.4,52.3 87.3,52.8 85.8,52.8 L85.8,52.8 Z M53.3,49.3 C52.9,50.1 52,50.6 51.1,50.6 L38.9,50.6 C38,50.6 37.1,50.1 36.7,49.3 L53.3,49.3 L53.3,49.3 Z M45,2.4 C45.4,2.4 45.8,2.8 45.8,3.2 C45.8,3.6 45.4,4 45,4 C44.6,4 44.2,3.6 44.2,3.2 C44.2,2.8 44.6,2.4 45,2.4 L45,2.4 Z M11.3,4.8 C11.3,4.6 11.5,4.4 11.7,4.4 L79,4.4 C79.2,4.4 79.4,4.6 79.4,4.8 L79.4,45.7 C79.4,45.9 79.2,46.1 79,46.1 L11.6,46.1 C11.4,46.1 11.2,45.9 11.2,45.7 L11.2,4.8 L11.3,4.8 Z M0.3,49.3 L36.4,49.3 C36.9,50.3 37.8,50.9 38.9,50.9 L51.1,50.9 C52.2,50.9 53.2,50.3 53.6,49.3 L89.7,49.3 L89.7,51.4 L0.3,51.4 L0.3,49.3 L0.3,49.3 Z" id="Shape" fill="#000000"></path>
    </g>
</svg>